<svg width="80" height="80" viewBox="0 0 80 80" fill="none" xmlns="http://www.w3.org/2000/svg">
<path d="M58.2121 17.2817H47.9798C46.8164 17.2817 45.7009 17.7442 44.8785 18.5665C44.0561 19.3889 43.5942 20.5044 43.5942 21.6673V33.3619C43.5942 34.5248 44.0561 35.6403 44.8785 36.4627C45.7009 37.2851 46.8164 37.747 47.9798 37.747H58.2121C59.375 37.747 60.4905 37.2851 61.3129 36.4627C62.1353 35.6404 62.5977 34.5248 62.5977 33.3619V21.6673C62.5977 20.5044 62.1353 19.3889 61.3129 18.5665C60.4905 17.7442 59.375 17.2817 58.2121 17.2817ZM56.7504 31.8996H49.4415V23.129H56.7504V31.8996Z" fill="#E56059"/>
<path d="M27.5144 37.747C30.2282 37.747 32.8309 36.6693 34.75 34.7502C36.6691 32.8312 37.7468 30.2285 37.7468 27.5146C37.7468 24.8008 36.669 22.1982 34.75 20.2791C32.831 18.3599 30.2282 17.2817 27.5144 17.2817C24.8006 17.2817 22.1979 18.36 20.2788 20.2791C18.3597 22.1981 17.2815 24.8008 17.2815 27.5146C17.2815 30.2285 18.3598 32.8311 20.2788 34.7502C22.1978 36.6694 24.8006 37.747 27.5144 37.747ZM27.5144 23.1292C28.6773 23.1292 29.7928 23.5911 30.6152 24.4139C31.4376 25.2363 31.8995 26.3518 31.8995 27.5148C31.8995 28.6777 31.4376 29.7932 30.6152 30.6156C29.7929 31.4379 28.6773 31.8998 27.5144 31.8998C26.3515 31.8998 25.236 31.4379 24.4136 30.6156C23.5907 29.7932 23.1288 28.6777 23.1288 27.5148C23.1288 26.3518 23.5907 25.2363 24.4136 24.4139C25.2359 23.5911 26.3515 23.1292 27.5144 23.1292Z" fill="#E56059"/>
<path d="M58.2119 42.1323H23.129C21.966 42.1323 20.8505 42.5942 20.0282 43.4166C19.2058 44.2389 18.7439 45.3545 18.7439 46.5174V58.212C18.7439 59.3749 19.2058 60.4904 20.0282 61.3128C20.8505 62.1352 21.9661 62.5976 23.129 62.5976H58.2119C59.3748 62.5976 60.4903 62.1352 61.3127 61.3128C62.1351 60.4904 62.5975 59.3749 62.5975 58.212V46.5174C62.5975 45.3545 62.1351 44.239 61.3127 43.4166C60.4904 42.5942 59.3748 42.1323 58.2119 42.1323ZM56.7503 56.7502H24.5909V47.9796H56.7503V56.7502Z" fill="#E56059"/>
</svg>
