<svg width="80" height="80" viewBox="0 0 80 80" fill="none" xmlns="http://www.w3.org/2000/svg">
<path d="M62.1247 30.8802H44.6332L36.3921 16.5843C35.5513 15.1827 34.0934 14.2856 32.4678 14.2856C30.8422 14.2856 29.3284 15.1264 28.5435 16.5843L14.0234 41.7563C13.1826 43.1578 13.1826 44.8957 14.0234 46.2972C14.8642 47.6988 16.3221 48.5959 17.9477 48.5959H31.739V61.322C31.739 63.8447 33.7572 65.863 36.2799 65.863H62.1247C64.6474 65.863 66.6656 63.8447 66.6656 61.322V35.4212C66.6656 32.8985 64.6474 30.8803 62.1247 30.8803V30.8802ZM32.4677 19.8359L46.1469 43.5503H18.7885L32.4677 19.8359ZM61.6201 60.7614H36.7845V48.5398H46.9878C48.6135 48.5398 50.1272 47.699 50.9121 46.2412C51.7529 44.8396 51.7529 43.1018 50.9121 41.7002L47.5482 35.8699H61.6198L61.6201 60.7614Z" fill="#6A6FF5"/>
</svg>
