<svg width="54" height="58" viewBox="0 0 54 58" fill="none" xmlns="http://www.w3.org/2000/svg">
<path d="M3 0.5H51C51.7957 0.5 52.5587 0.83363 53.1213 1.4275C53.6839 2.02136 54 2.82681 54 3.66667V54.3333C54 55.1732 53.6839 55.9786 53.1213 56.5725C52.5587 57.1664 51.7957 57.5 51 57.5H3C2.20435 57.5 1.44129 57.1664 0.87868 56.5725C0.31607 55.9786 0 55.1732 0 54.3333V3.66667C0 2.82681 0.31607 2.02136 0.87868 1.4275C1.44129 0.83363 2.20435 0.5 3 0.5ZM24.009 41.6667L45.219 19.2752L40.977 14.7975L24.009 32.7113L15.522 23.7528L11.28 28.2305L24.009 41.6667Z" fill="#FBE4D1"/>
</svg>
