<svg width="54" height="60" viewBox="0 0 54 60" fill="none" xmlns="http://www.w3.org/2000/svg">
<path d="M51 60H3C2.20435 60 1.44129 59.6839 0.87868 59.1213C0.31607 58.5587 0 57.7956 0 57V3C0 2.20435 0.31607 1.44129 0.87868 0.878679C1.44129 0.31607 2.20435 0 3 0H51C51.7957 0 52.5587 0.31607 53.1213 0.878679C53.6839 1.44129 54 2.20435 54 3V57C54 57.7956 53.6839 58.5587 53.1213 59.1213C52.5587 59.6839 51.7957 60 51 60ZM48 54V6H6V54H48ZM15 15H39V21H15V15ZM15 27H39V33H15V27ZM15 39H39V45H15V39Z" fill="#FBE4D1"/>
</svg>
